<svg version="1.1" xmlns="http://www.w3.org/2000/svg" xmlns:xlink="http://www.w3.org/1999/xlink">

    <symbol id="user" viewBox="0 0 512 512">
        <g>
            <path d="M256,274.1c-75.6,0-137.1-61.5-137.1-137.1S180.4,0,256,0c75.6,0,137.1,61.5,137.1,137.1   S331.6,274.1,256,274.1z M256,20.4c-64.3,0-116.6,52.3-116.6,116.6S191.7,253.7,256,253.7c64.3,0,116.6-52.3,116.6-116.6   S320.3,20.4,256,20.4z"/>
            <path d="M493.9,512c-5.6,0-10.2-4.6-10.2-10.2c0-125.5-102.1-227.6-227.6-227.6c-125.5,0-227.6,102.1-227.6,227.6   c0,5.6-4.6,10.2-10.2,10.2s-10.2-4.6-10.2-10.2c0-66.3,25.8-128.6,72.7-175.4s109.2-72.7,175.4-72.7s128.6,25.8,175.4,72.7   s72.7,109.2,72.7,175.4C504.1,507.4,499.5,512,493.9,512z"/>
        </g>
    </symbol>

    <symbol id="mail" viewBox="0 0 48 48">
        <g id="Expanded"><g><g><path d="M44,40H4c-2.206,0-4-1.794-4-4V12c0-2.206,1.794-4,4-4h40c2.206,0,4,1.794,4,4v24C48,38.206,46.206,40,44,40z M4,10     c-1.103,0-2,0.897-2,2v24c0,1.103,0.897,2,2,2h40c1.103,0,2-0.897,2-2V12c0-1.103-0.897-2-2-2H4z"/></g><g><path d="M24,29.191L6.457,17.84c-0.464-0.301-0.597-0.919-0.297-1.383s0.919-0.596,1.383-0.297L24,26.809L40.457,16.16     c0.464-0.299,1.083-0.167,1.383,0.297s0.167,1.082-0.297,1.383L24,29.191z"/></g><g><path d="M6.001,34c-0.323,0-0.641-0.156-0.833-0.445c-0.307-0.46-0.183-1.08,0.277-1.387l9-6c0.46-0.307,1.081-0.183,1.387,0.277     c0.307,0.46,0.183,1.08-0.277,1.387l-9,6C6.384,33.945,6.191,34,6.001,34z"/></g><g><path d="M41.999,34c-0.19,0-0.383-0.055-0.554-0.168l-9-6c-0.46-0.307-0.584-0.927-0.277-1.387     c0.306-0.46,0.926-0.584,1.387-0.277l9,6c0.46,0.307,0.584,0.927,0.277,1.387C42.64,33.844,42.322,34,41.999,34z"/></g></g></g>
    </symbol>

    <symbol id="sex" viewBox="0 0 1000 1000">
        <g><path d="M836.5,468.7l94.1-94.1c12.7-12.7,12.7-33.3,0-46c-12.7-12.7-33.3-12.7-46,0l-94.1,94.1l-52.3-52.3c65.9-88.3,58.8-214.2-21.3-294.3C674.3,33.5,617.6,10,557.4,10c-60.2,0-116.9,23.5-159.5,66.1c-87.9,87.9-87.9,231,0,319c42.6,42.6,99.2,66.1,159.5,66.1c49.3,0,96.1-15.7,134.8-44.7l52.3,52.3l-94.1,94.1c-12.7,12.7-12.7,33.3,0,46c6.4,6.4,14.7,9.5,23,9.5c8.3,0,16.7-3.2,23-9.5l94.1-94.1l94.1,94.1c6.3,6.4,14.7,9.5,23,9.5c8.3,0,16.7-3.2,23-9.5c12.7-12.7,12.7-33.3,0-46L836.5,468.7z M557.4,396c-42.9,0-83.2-16.7-113.5-47c-62.6-62.6-62.6-164.4,0-227c30.3-30.3,70.6-47,113.5-47c42.9,0,83.2,16.7,113.5,47c62.6,62.6,62.6,164.4,0,227C640.6,379.3,600.3,396,557.4,396z"/><path d="M429.2,538.9c-49.3,0-96.1,15.7-134.8,44.7L170.9,460.1h172.8c18,0,32.5-14.6,32.5-32.5c0-18-14.6-32.5-32.5-32.5H92.4c-0.5,0-1.1,0-1.6,0c-0.2,0-0.5,0-0.7,0c-0.3,0-0.6,0-0.9,0.1c-0.3,0-0.6,0.1-0.9,0.1c-0.2,0-0.5,0.1-0.7,0.1c-0.3,0-0.7,0.1-1,0.2c-0.2,0-0.4,0.1-0.6,0.1c-0.3,0.1-0.7,0.1-1,0.2c-0.2,0-0.4,0.1-0.6,0.1c-0.3,0.1-0.6,0.2-1,0.3c-0.2,0.1-0.4,0.1-0.6,0.2c-0.3,0.1-0.6,0.2-0.9,0.3c-0.2,0.1-0.4,0.1-0.6,0.2c-0.3,0.1-0.5,0.2-0.8,0.3c-0.2,0.1-0.5,0.2-0.7,0.3c-0.2,0.1-0.4,0.2-0.7,0.3c-0.3,0.1-0.5,0.2-0.8,0.4c-0.2,0.1-0.4,0.2-0.6,0.3c-0.3,0.1-0.6,0.3-0.9,0.5c-0.2,0.1-0.3,0.2-0.5,0.3c-0.3,0.2-0.6,0.3-0.9,0.5c-0.1,0.1-0.3,0.2-0.4,0.3c-0.3,0.2-0.6,0.4-0.9,0.6c-0.1,0.1-0.3,0.2-0.4,0.3c-0.3,0.2-0.6,0.4-0.9,0.6c-0.1,0.1-0.3,0.2-0.4,0.3c-0.3,0.2-0.5,0.4-0.8,0.6c-0.2,0.1-0.4,0.3-0.5,0.5c-0.2,0.2-0.5,0.4-0.7,0.6c-0.3,0.3-0.6,0.5-0.9,0.8c-0.1,0.1-0.2,0.2-0.3,0.3c-0.1,0.1-0.2,0.2-0.3,0.3c-0.3,0.3-0.6,0.6-0.8,0.9c-0.2,0.2-0.4,0.5-0.6,0.7c-0.1,0.2-0.3,0.3-0.4,0.5c-0.2,0.3-0.4,0.5-0.6,0.8c-0.1,0.1-0.2,0.3-0.3,0.4c-0.2,0.3-0.4,0.6-0.6,0.9c-0.1,0.1-0.2,0.3-0.3,0.4c-0.2,0.3-0.4,0.6-0.6,0.9c-0.1,0.1-0.2,0.3-0.3,0.4c-0.2,0.3-0.4,0.6-0.5,0.9c-0.1,0.2-0.2,0.3-0.3,0.5c-0.2,0.3-0.3,0.6-0.5,0.9c-0.1,0.2-0.2,0.4-0.3,0.5c-0.1,0.3-0.2,0.5-0.4,0.8c-0.1,0.2-0.2,0.4-0.3,0.7c-0.1,0.2-0.2,0.5-0.3,0.7c-0.1,0.3-0.2,0.5-0.3,0.8c-0.1,0.2-0.1,0.4-0.2,0.7c-0.1,0.3-0.2,0.6-0.3,0.9c-0.1,0.2-0.1,0.4-0.2,0.6c-0.1,0.3-0.2,0.6-0.3,1c0,0.2-0.1,0.4-0.1,0.5c-0.1,0.3-0.2,0.7-0.2,1c0,0.2-0.1,0.4-0.1,0.6c-0.1,0.3-0.1,0.7-0.2,1c0,0.2-0.1,0.4-0.1,0.7c0,0.3-0.1,0.6-0.1,0.9c0,0.3,0,0.6-0.1,0.9c0,0.2,0,0.5-0.1,0.7c0,0.5,0,1.1,0,1.6v251.3c0,18,14.6,32.5,32.5,32.5c18,0,32.5-14.6,32.5-32.5V506.1l123.5,123.5c-29,38.7-44.7,85.6-44.7,134.8c0,60.2,23.5,116.9,66.1,159.5C312.4,966.5,369,990,429.3,990c60.2,0,116.9-23.5,159.5-66.1c42.6-42.6,66.1-99.2,66.1-159.5c0-60.2-23.5-116.9-66.1-159.5C546.1,562.4,489.5,538.9,429.2,538.9z M542.7,877.9c-30.3,30.3-70.6,47-113.5,47c-42.9,0-83.2-16.7-113.5-47c-30.3-30.3-47-70.6-47-113.5c0-38.9,13.7-75.6,38.9-104.7c3.6-1.6,7-3.9,10-6.8c3-3,5.2-6.4,6.8-10c29.1-25.2,65.9-38.9,104.7-38.9c42.9,0,83.2,16.7,113.5,47c30.3,30.3,47,70.6,47,113.5C589.7,807.3,573,847.6,542.7,877.9z"/></g>
    </symbol>

    <symbol id="lock" viewBox="7 0 50 50">

        <path d="M18,47c-1.104,0-2-0.896-2-2  V23c0-1.104,0.896-2,2-2h28c1.104,0,2,0.896,2,2v22c0,1.104-0.896,2-2,2H18z" fill="none" stroke="#000000" stroke-linecap="round" stroke-miterlimit="10" stroke-width="2"/><path d="M42,21c0-1.045,0-5.955,0-7  c0-5.523-4.477-10-10-10S22,8.477,22,14c0,1.045,0,5.955,0,7" fill="none" stroke="#000000" stroke-linecap="round" stroke-miterlimit="10" stroke-width="2"/><path d="M35,32c0-1.657-1.343-3-3-3s-3,1.343-3,3c0,0.885,0.391,1.673,1,2.222V37c0,1.104,0.896,2,2,2s2-0.896,2-2v-2.778  C34.609,33.673,35,32.885,35,32z"/>
    </symbol>

</svg>