<?xml version="1.0" encoding="utf-8"?>
<!-- Svg Vector Icons : http://www.onlinewebfonts.com/icon -->
<!DOCTYPE svg PUBLIC "-//W3C//DTD SVG 1.1//EN" "http://www.w3.org/Graphics/SVG/1.1/DTD/svg11.dtd">
<svg version="1.1" xmlns="http://www.w3.org/2000/svg" xmlns:xlink="http://www.w3.org/1999/xlink" x="0px" y="0px" viewBox="0 0 1000 1000" enable-background="new 0 0 1000 1000" xml:space="preserve">
<g><path d="M836.5,468.7l94.1-94.1c12.7-12.7,12.7-33.3,0-46c-12.7-12.7-33.3-12.7-46,0l-94.1,94.1l-52.3-52.3c65.9-88.3,58.8-214.2-21.3-294.3C674.3,33.5,617.6,10,557.4,10c-60.2,0-116.9,23.5-159.5,66.1c-87.9,87.9-87.9,231,0,319c42.6,42.6,99.2,66.1,159.5,66.1c49.3,0,96.1-15.7,134.8-44.7l52.3,52.3l-94.1,94.1c-12.7,12.7-12.7,33.3,0,46c6.4,6.4,14.7,9.5,23,9.5c8.3,0,16.7-3.2,23-9.5l94.1-94.1l94.1,94.1c6.3,6.4,14.7,9.5,23,9.5c8.3,0,16.7-3.2,23-9.5c12.7-12.7,12.7-33.3,0-46L836.5,468.7z M557.4,396c-42.9,0-83.2-16.7-113.5-47c-62.6-62.6-62.6-164.4,0-227c30.3-30.3,70.6-47,113.5-47c42.9,0,83.2,16.7,113.5,47c62.6,62.6,62.6,164.4,0,227C640.6,379.3,600.3,396,557.4,396z"/><path d="M429.2,538.9c-49.3,0-96.1,15.7-134.8,44.7L170.9,460.1h172.8c18,0,32.5-14.6,32.5-32.5c0-18-14.6-32.5-32.5-32.5H92.4c-0.5,0-1.1,0-1.6,0c-0.2,0-0.5,0-0.7,0c-0.3,0-0.6,0-0.9,0.1c-0.3,0-0.6,0.1-0.9,0.1c-0.2,0-0.5,0.1-0.7,0.1c-0.3,0-0.7,0.1-1,0.2c-0.2,0-0.4,0.1-0.6,0.1c-0.3,0.1-0.7,0.1-1,0.2c-0.2,0-0.4,0.1-0.6,0.1c-0.3,0.1-0.6,0.2-1,0.3c-0.2,0.1-0.4,0.1-0.6,0.2c-0.3,0.1-0.6,0.2-0.9,0.3c-0.2,0.1-0.4,0.1-0.6,0.2c-0.3,0.1-0.5,0.2-0.8,0.3c-0.2,0.1-0.5,0.2-0.7,0.3c-0.2,0.1-0.4,0.2-0.7,0.3c-0.3,0.1-0.5,0.2-0.8,0.4c-0.2,0.1-0.4,0.2-0.6,0.3c-0.3,0.1-0.6,0.3-0.9,0.5c-0.2,0.1-0.3,0.2-0.5,0.3c-0.3,0.2-0.6,0.3-0.9,0.5c-0.1,0.1-0.3,0.2-0.4,0.3c-0.3,0.2-0.6,0.4-0.9,0.6c-0.1,0.1-0.3,0.2-0.4,0.3c-0.3,0.2-0.6,0.4-0.9,0.6c-0.1,0.1-0.3,0.2-0.4,0.3c-0.3,0.2-0.5,0.4-0.8,0.6c-0.2,0.1-0.4,0.3-0.5,0.5c-0.2,0.2-0.5,0.4-0.7,0.6c-0.3,0.3-0.6,0.5-0.9,0.8c-0.1,0.1-0.2,0.2-0.3,0.3c-0.1,0.1-0.2,0.2-0.3,0.3c-0.3,0.3-0.6,0.6-0.8,0.9c-0.2,0.2-0.4,0.5-0.6,0.7c-0.1,0.2-0.3,0.3-0.4,0.5c-0.2,0.3-0.4,0.5-0.6,0.8c-0.1,0.1-0.2,0.3-0.3,0.4c-0.2,0.3-0.4,0.6-0.6,0.9c-0.1,0.1-0.2,0.3-0.3,0.4c-0.2,0.3-0.4,0.6-0.6,0.9c-0.1,0.1-0.2,0.3-0.3,0.4c-0.2,0.3-0.4,0.6-0.5,0.9c-0.1,0.2-0.2,0.3-0.3,0.5c-0.2,0.3-0.3,0.6-0.5,0.9c-0.1,0.2-0.2,0.4-0.3,0.5c-0.1,0.3-0.2,0.5-0.4,0.8c-0.1,0.2-0.2,0.4-0.3,0.7c-0.1,0.2-0.2,0.5-0.3,0.7c-0.1,0.3-0.2,0.5-0.3,0.8c-0.1,0.2-0.1,0.4-0.2,0.7c-0.1,0.3-0.2,0.6-0.3,0.9c-0.1,0.2-0.1,0.4-0.2,0.6c-0.1,0.3-0.2,0.6-0.3,1c0,0.2-0.1,0.4-0.1,0.5c-0.1,0.3-0.2,0.7-0.2,1c0,0.2-0.1,0.4-0.1,0.6c-0.1,0.3-0.1,0.7-0.2,1c0,0.2-0.1,0.4-0.1,0.7c0,0.3-0.1,0.6-0.1,0.9c0,0.3,0,0.6-0.1,0.9c0,0.2,0,0.5-0.1,0.7c0,0.5,0,1.1,0,1.6v251.3c0,18,14.6,32.5,32.5,32.5c18,0,32.5-14.6,32.5-32.5V506.1l123.5,123.5c-29,38.7-44.7,85.6-44.7,134.8c0,60.2,23.5,116.9,66.1,159.5C312.4,966.5,369,990,429.3,990c60.2,0,116.9-23.5,159.5-66.1c42.6-42.6,66.1-99.2,66.1-159.5c0-60.2-23.5-116.9-66.1-159.5C546.1,562.4,489.5,538.9,429.2,538.9z M542.7,877.9c-30.3,30.3-70.6,47-113.5,47c-42.9,0-83.2-16.7-113.5-47c-30.3-30.3-47-70.6-47-113.5c0-38.9,13.7-75.6,38.9-104.7c3.6-1.6,7-3.9,10-6.8c3-3,5.2-6.4,6.8-10c29.1-25.2,65.9-38.9,104.7-38.9c42.9,0,83.2,16.7,113.5,47c30.3,30.3,47,70.6,47,113.5C589.7,807.3,573,847.6,542.7,877.9z"/></g>
</svg>